<?xml version="1.0" standalone="no"?>
<!DOCTYPE svg PUBLIC "-//W3C//DTD SVG 20010904//EN"
 "http://www.w3.org/TR/2001/REC-SVG-20010904/DTD/svg10.dtd">
<svg version="1.0" xmlns="http://www.w3.org/2000/svg"
 width="512.000000pt" height="512.000000pt" viewBox="0 0 512.000000 512.000000"
 preserveAspectRatio="xMidYMid meet">
<metadata>
Created by potrace 1.11, written by Peter Selinger 2001-2013
</metadata>
<g transform="translate(0.000000,512.000000) scale(0.100000,-0.100000)"
fill="#000000" stroke="none">
<path d="M890 5108 c-52 -11 -58 -12 -85 -23 -79 -30 -179 -88 -168 -99 3 -3
1 -6 -5 -6 -26 0 -105 -97 -142 -175 -40 -83 -44 -96 -56 -160 -8 -47 -9
-4077 -1 -4150 8 -64 48 -189 66 -205 3 -3 12 -17 19 -31 12 -23 81 -97 137
-146 29 -26 95 -60 162 -86 l58 -22 1660 -2 c1080 -2 1676 1 1705 7 57 13 190
70 190 81 0 5 5 9 10 9 25 0 170 150 170 175 0 5 6 16 14 24 21 25 54 129 63
201 4 36 8 747 7 1580 0 1445 -1 1518 -19 1570 -15 45 -35 72 -112 150 -51 52
-94 97 -94 100 -1 3 -109 109 -239 235 -130 127 -238 235 -240 240 -2 6 -110
114 -240 240 -130 127 -238 235 -240 240 -1 6 -55 60 -120 121 -94 91 -126
115 -166 127 -42 13 -206 15 -1169 15 -672 0 -1138 -4 -1165 -10z"/>
</g>
</svg>
